<svg xmlns="http://www.w3.org/2000/svg" viewBox="0 0 800 800"><circle cx="400" cy="400" r="400" fill="#002e5d"/><path fill="#fff" d="M400 221.46c42.02 0 80.68 14.52 111.22 38.87l65.53-90.24C527.82 132.38 466.54 110 400 110c-160.15 0-290 129.82-290 290s129.85 290 290 290c66.54 0 127.82-22.41 176.75-60.09l-65.53-90.24c-30.54 24.35-69.2 38.87-111.22 38.87-98.6 0-178.54-79.94-178.54-178.54S301.4 221.46 400 221.46Z"/><path fill="#0090d4" d="M631.2 575.09C668.1 526.44 690 465.78 690 400s-19.8-120.45-53.47-167.82l-94.24 59.96c22.75 29.96 36.25 67.33 36.25 107.86s-13.39 77.58-35.96 107.48"/></svg>
